<svg width="40" height="40" viewBox="0 0 40 40" fill="none" xmlns="http://www.w3.org/2000/svg">
<path d="M7.30376 0C3.2578 0 0 3.1896 0 7.15087V32.0119C0 35.9731 3.2578 39.1627 7.30376 39.1627H21.0663V23.8525H16.9313V18.3404H21.0663V13.6311C21.0663 9.93119 23.5094 6.53406 29.1375 6.53406C31.4162 6.53406 33.1013 6.74824 33.1013 6.74824L32.9688 11.8957C32.9688 11.8957 31.2502 11.8798 29.375 11.8798C27.3454 11.8798 27.02 12.7954 27.02 14.3153V18.3404H33.13L32.8638 23.8526H27.02V39.1628H32.6962C36.7422 39.1628 40 35.9732 40 32.0119V7.15091C40 3.18964 36.7422 3.91627e-05 32.6962 3.91627e-05H7.30372L7.30376 0Z" fill="white"/>
</svg>
