<svg width="40" height="40" viewBox="0 0 40 40" fill="none" xmlns="http://www.w3.org/2000/svg">
<path d="M26.4 19.5814C26.4 20.8207 26.0246 22.0322 25.3214 23.0626C24.6182 24.0931 23.6186 24.8962 22.4492 25.3705C21.2797 25.8447 19.9929 25.9688 18.7514 25.727C17.5099 25.4853 16.3696 24.8885 15.4745 24.0121C14.5795 23.1358 13.9699 22.0193 13.723 20.8038C13.476 19.5883 13.6028 18.3284 14.0872 17.1835C14.5716 16.0385 15.3919 15.0599 16.4444 14.3714C17.4968 13.6828 18.7342 13.3153 20 13.3153C21.6958 13.3205 23.3206 13.9823 24.5197 15.1563C25.7187 16.3303 26.3947 17.9211 26.4 19.5814ZM40 10.9656V28.1972C40 31.1054 38.82 33.8946 36.7196 35.951C34.6192 38.0075 31.7704 39.1628 28.8 39.1628H11.2C8.22958 39.1628 5.38081 38.0075 3.2804 35.951C1.18 33.8946 0 31.1054 0 28.1972V10.9656C0 8.05732 1.18 5.26819 3.2804 3.21174C5.38081 1.1553 8.22958 0 11.2 0H28.8C31.7704 0 34.6192 1.1553 36.7196 3.21174C38.82 5.26819 40 8.05732 40 10.9656ZM29.6 19.5814C29.6 17.7224 29.037 15.9052 27.9821 14.3595C26.9272 12.8139 25.4279 11.6092 23.6738 10.8978C21.9196 10.1864 19.9894 10.0003 18.1271 10.3629C16.2649 10.7256 14.5544 11.6208 13.2118 12.9352C11.8692 14.2497 10.9549 15.9245 10.5845 17.7477C10.214 19.571 10.4042 21.4608 11.1308 23.1782C11.8574 24.8957 13.0878 26.3636 14.6665 27.3964C16.2452 28.4292 18.1013 28.9804 20 28.9804C22.5461 28.9804 24.9879 27.9902 26.7882 26.2275C28.5886 24.4649 29.6 22.0742 29.6 19.5814ZM32.8 9.39906C32.8 8.93432 32.6592 8.48002 32.3955 8.09361C32.1318 7.70719 31.757 7.40601 31.3184 7.22816C30.8799 7.05031 30.3973 7.00378 29.9318 7.09445C29.4662 7.18511 29.0386 7.40891 28.7029 7.73753C28.3673 8.06615 28.1387 8.48484 28.0461 8.94065C27.9535 9.39646 28.001 9.86892 28.1827 10.2983C28.3643 10.7276 28.672 11.0946 29.0666 11.3528C29.4613 11.611 29.9253 11.7488 30.4 11.7488C31.0365 11.7488 31.647 11.5013 32.0971 11.0606C32.5471 10.6199 32.8 10.0223 32.8 9.39906Z" fill="white"/>
</svg>
